<svg xmlns="http://www.w3.org/2000/svg" version="1.1" xmlns:xlink="http://www.w3.org/1999/xlink" xmlns:svgjs="http://svgjs.dev/svgjs" viewBox="0 0 800 800"><defs><linearGradient x1="50%" y1="0%" x2="50%" y2="100%" id="ssscribble-grad"><stop stop-color="hsl(30, 100%, 50%)" stop-opacity="1" offset="0%"></stop><stop stop-color="hsl(30, 100%, 70%)" stop-opacity="1" offset="100%"></stop></linearGradient></defs><g fill="none" stroke-width="1.5" stroke="url(#ssscribble-grad)" stroke-linecap="round"><path d="M673.56 603.1C666.5 635.96 798.84 673.36 971.99 712.67 1078.69 749.56 1048.14 783.61 906.99 809.34 729.19 826.08 604.12 827.25 574.81 808.63 639.58 778.5 750.68 730.66 852.11 671.65 917.41 620.92 918.25 581.58 866.12 568.98 774.15 596 667.72 663 567.84 765.05 469.7 883.36 391.37 996.06 332.02 1074.37 277.23 1098.41 234.7 1058.11 201.84 960.92 168.97 838.88 147.34 726.6 140.16 653.5 137.54 635.91 156.09 671.18 197.29 742.49 240.22 835.04 292.52 918.32 333.86 973.98 335.33 998.17 287.32 982.39 178.95 934.26 34.45 860.94 -115.6 774.25 -214.59 686.14 -219.49 596.4 -123.89 516.55 29.8 449.13 146.87 387.17 158.71 335.92 39.34 293.05 -146.49 252.45 -285.49 216.27 -278.43 183.4 -129.19 150.54 56.94 122.56 158.2 101.19 118.25 82.08 -24.25 73.55 -172.84 78.56 -249.52 89.03 -208.43 114.76 -79.12 153.85 86.29 191.32 220.55 230.84 289.32 261.09 287.47 266.16 234.73 242.99 165.37 184.59 89.73 94.72 40.22 -18.02 21.8 -134.66 22.59 -230.06 46.08 -284.04 80.51 -279.15 121.16 -218.74 160.71 -113.14 193.57 8.89 226.44 106.1 251.04 153.07 272.37 141.73 299.91 76.11 336.2 -17.87 392.36 -112.09 467.73 -190.07 571.35 -227.61 697.63 -220.42 817.64 -173.61 917.56 -95.32 962.48 -1.52 936.78 100.55 841.48 195.57 710.27 276.35 615.19 345.62 603.57 398.57 704.33 438.78 877.01 470 1038.22 495.73 1090.85 520.81 1002.28 543.47 822.8 570.24 673.56 603.1Q673.56 603.1 673.56 603.1" opacity="0.14"></path><path d="M639.56 625.76C627.5 656.28 739.48 684.56 900.93 708.81 1025.27 730.95 1039.94 745.2 945.43 748.14 786.68 744.99 635.7 727.13 546.53 694.17 538.93 657.93 599.72 613.1 690.16 567.9 786.65 538.62 848.94 527.35 867.1 544.5 847.37 595.31 794.46 677.43 726.37 782.5 645.01 892.29 568.44 989 504.91 1050.05 441 1062.13 392.89 1018.67 362.38 926.92 331.86 813.67 320.39 706.7 326.76 630.58 332.74 600.13 353.8 616.3 382.28 668.49 397.49 747.19 400.16 827.87 372.86 893.48 307.67 939.84 201.57 954.04 65.08 938.08 -65.34 897.29 -162.3 837.05 -186.48 767.34 -129.08 689.25 -5.47 613.3 130.9 544.63 203.05 476.9 171.01 418.66 34.9 370.36 -138.32 323.2 -256.49 284.26 -244.43 253.75 -108.71 223.24 67.05 202.58 181.87 192.19 179.28 182.95 72.29 185.68 -70.98 200.52 -184.64 216.32 -208.83 242.02 -141.66 273.08 -9.54 295.77 137.54 312.2 256.5 313 329.72 288.98 348.03 238.6 328 160.48 277.8 63.1 224.87 -44.93 184.81 -146 148.46 -220.56 133.48 -254.12 137.56 -235.45 145.79 -171.12 166.63 -70.35 197.14 42.89 227.66 134.66 266.4 184.32 315.71 184.03 369.18 134.76 439.66 55.43 528.89 -31.99 621.83 -114.7 725.02 -169.46 822.25 -188.51 889.31 -173.89 914.8 -126.45 881.57 -57.18 802.61 28 691.7 116.64 591.35 199.9 555.95 279.89 607.51 348.01 743.54 404.05 909.18 453.98 1033.54 495.24 1047.91 530.65 944.86 563.95 775.28 595.25 639.56 625.76Q639.56 625.76 639.56 625.76" opacity="0.81"></path><path d="M605.56 577.84C589.32 606.01 681.62 626.6 827.69 638.95 960.63 650.01 1012.63 650.71 967.26 640.02 845.64 626.94 696.81 602.62 572.15 569.52 500.25 539.9 494.01 509.78 536.89 487.08 614.84 483.29 693.54 499.73 752.46 542.1 793.09 609.87 801.82 699.49 785.81 801.13 753.15 898.65 709.98 978.25 666.39 1022.9 619.03 1024.53 579.25 978.96 551.08 892.92 522.91 788.49 507.7 687.58 501.93 610.29 492.41 569.52 484.33 568.46 468.18 601.23 435.38 662.51 380.27 733.73 296.22 800.36 193.89 858.96 74.76 894.91 -40.1 906.17 -119.9 896.98 -147.05 866.78 -104.48 822.48 -9.15 766.63 114.41 706.3 215.39 647.43 240.12 585.93 172.09 530.41 28.27 483.32 -128.66 436.22 -226.66 397.98 -210.43 369.81 -87.97 341.64 75.58 324.87 198.59 318.85 228.6 312.82 161 317.11 38.5 329.79 -89.74 339.85 -163.63 353.8 -161.26 366.24 -88.12 367.13 30.68 356.9 158.25 329.18 275 281.01 355.72 211.67 398.56 123.74 408.06 27.79 395.27 -68.68 375.5 -150.61 345.88 -204.04 325.26 -219.02 319.48 -189.12 313.67 -122.71 324.38 -27.52 352.55 76.89 380.72 162.95 425.01 214.24 483.94 223.49 542.84 189.72 614.69 126.15 693.12 49.28 761.71 -31.71 820.89 -96.07 854.8 -134.52 855.37 -147.56 815.09 -130.62 735.25 -89.91 644.6 -30.29 559.19 40.25 515.37 113.28 542.33 189.8 641.48 260.5 790.38 322.4 933.52 381.89 1017.16 432.44 998.01 474.5 885.87 515.27 728.02 549.68 605.56 577.84Q605.56 577.84 605.56 577.84" opacity="0.20"></path><path d="M571.56 474.32C551.98 500.14 625.58 515.93 753.52 522.01 886.57 527.77 965.8 523.53 966.14 510.25 891.87 497.84 769.25 478.99 638.51 457.56 526.95 443.69 460.8 435.13 442.29 438.15 467.1 459.04 517 498.8 572.43 559.25 632.41 636.13 676.01 725.82 699.5 818.55 711.87 932.21 664.43 962.3 626.69 858.92 600.87 763.35 574.31 669.17 544.44 592.48 510.8 544.03 467.09 528.17 408.34 542.42 340.11 584.45 253.99 641.14 154.22 701.05 58.99 761.95 -27.97 809.65 -86.62 839.78 -101.95 856.05 -66.41 853.4 18.25 835.49 122.11 806.26 221.58 768.24 276.92 726.6 257.66 680.47 163.73 635.82 20.72 595.93 -117.17 555.22 -196.01 521.12 -176.43 495.3 -66.94 469.48 82.9 453.16 208.87 445.18 265.31 436.36 237.01 434.05 146.27 435.44 24.91 432.33 -76.01 427.84 -126.25 417.28 -118.57 395.4 -54.93 360.98 41.92 310.87 157.03 246.91 264.17 168.6 350 80.82 416.13 -5.97 456.95 -85.81 479.95 -146.78 489.04 -179.96 493.1 -178.81 500.13 -140.33 504.15 -73.61 517.6 15.32 543.42 110.88 569.24 190.97 606.21 242.83 650.88 260.05 692.54 240.48 735.45 192.98 771.11 129.35 792.85 55.54 794.55 -10.99 768.21 -60.99 722.18 -94.55 652.11 -103.71 570.84 -90.76 507.82 -59.93 474.79 -14.31 494 39.34 571.12 100.57 695.21 161.94 835.49 219.09 945.16 277.12 988.15 328.33 941.67 371.26 825.67 413.87 681.05 448.5 571.56 474.32Q571.56 474.32 571.56 474.32" opacity="0.79"></path><path d="M537.53 347.57C515.49 371.04 571.75 385.25 679.81 391.07 853.09 396.8 872.79 383.88 722.38 378.45 603.31 384.31 502.69 398.52 433.67 425.08 398.08 465.71 394.57 521.47 411.71 591.42 447.14 669.53 484.42 752.76 514.42 832.4 554.03 921.13 561.69 922.1 532.65 824.93 509.18 738.24 474.48 651.38 428.64 576.94 381.42 523.5 321.32 495.75 249.73 493.41 179.06 516.1 103.13 555.29 31.52 602.65 -21.79 657.16 -51.98 706.55 -47.15 745.61 -8.9 777.8 63.88 795.45 158.51 799.44 244.15 794.77 303.77 779.64 311.85 757.55 256.96 730.84 148.32 701.44 13.63 672.35 -103.48 642.11 -164.5 614.48 -142.46 591.01 -45.59 567.54 89.38 549.33 213.43 535.31 289.17 520.13 296.57 506.83 243.16 492.87 145.99 474.28 42.35 450.76 -38.23 419.24 -84.07 379.08 -81.47 327.73 -38.21 264.78 37.01 194.96 127.55 117.74 217.75 38.78 307.14 -33.01 381.62 -93.24 439.61 -133.14 488.82 -148.01 525.58 -133.61 554.39 -89.24 580.04 -23.85 603.51 58.24 626.99 144.93 661.64 244.48 709.87 270.68 704.31 205.83 687.01 143.4 651.18 81.22 597.97 27.55 515.53 -31.92 442.73 -41.8 525.61 -1.74 630.63 37.31 755.32 81.07 869.7 125.2 940.33 172.25 946.31 216.01 879.65 254.02 764.67 292.46 634.44 324.09 537.56 347.56Q537.53 347.57 537.53 347.57" opacity="0.83"></path><path d="M503.83 237.09C479.79 258.22 519.97 273.3 607.2 283.27 719.3 294.06 819.69 301.41 883.37 307.38 901.2 316.87 868.12 328.48 796.86 345.11 699.74 369.3 597.36 402.34 505.64 446.01 428.46 498.7 375.51 561.68 344.77 632.48 332.86 704.83 334.08 776.49 340.4 840.35 359.07 904.4 364.01 881.04 338.68 790.82 317.56 713.01 284.72 633.99 242.23 563.31 200.85 507.53 152.51 471.06 102.18 454.95 59.25 459.79 23.24 480.65 2.6 512.02 0.78 553.75 23.4 596.28 72.9 634.67 136.93 672.08 214.25 700.17 289.38 717.89 338.64 730.69 352.78 733.65 319.46 728.37 240.3 719.61 127.89 705.3 7.64 687.43 -87.74 668.52 -132.2 648.01 -108.16 626.88 -23.23 605.76 96.14 585.02 213.84 564.09 301.02 542.12 337.26 518 320.93 490.16 258.43 458.83 172.83 421.09 87.44 375.73 12.67 325.45 -31.43 267.03 -41.82 201.94 -22.62 135.86 22.36 68.28 81.89 4.55 153.65 -48.81 225.12 -88.62 289.5 -108.95 353.52 -108.33 406.78 -83.89 448.58 -36.26 489.11 26.24 519.97 100.98 541.09 178.78 567.41 271.16 562.55 319.01 527.72 276.46 499.95 228.08 463.27 175.36 424.07 125.01 397.1 76.21 382.43 38.27 390.92 13.26 428.99 -2.71 498.16 -5.43 594.92 2.93 702.31 18.86 806.85 42.04 884.84 69.16 916.66 99.8 892.43 130.88 813.41 159.93 703.86 189.8 588.76 215.97 503.83 237.09Q503.83 237.09 503.83 237.09" opacity="0.43"></path><path d="M469.52 177.71C445.06 196.49 471.67 213.48 538.75 229.24 633.06 245.82 728.45 262.76 804.69 281.49 853.12 303.16 862.3 329.14 835.39 360.95 778.41 397.82 702.16 442.21 619.56 494.14 534.12 550.18 458.4 611.77 396.71 675.87 345.24 737.06 307.99 793.84 281.66 840.85 262.66 873.96 248.58 889.79 235.44 885.01 224.28 861.33 210.17 817.59 191.39 756.89 172.61 687.95 150.06 617.19 125.8 551.65 103.53 496.04 83.45 454.17 69.9 427.69 63.7 417.49 70.02 421.26 92.55 435.73 125.3 461.18 174.07 490.96 234.89 521.06 292.88 554.14 346.87 582.71 384.29 604.75 391.65 625.4 365.63 638.36 303.44 643.64 213.44 647.11 107.36 643.95 5.81 634.91 -68.51 625.21 -98.93 610.81 -74.47 592.04 -1.55 573.26 101.61 550.99 209.45 525.27 301.09 498.89 358.36 467.9 374.89 431.89 350.69 394.06 296.89 350.18 228.61 300.59 152.58 249.61 87.61 194.08 41.94 136.39 13.49 81.68 8.52 29.64 22.58 -15.36 51.47 -49.38 90.54 -69.98 132.97 -73.56 180.68 -60.83 225.15 -29.65 262.61 18.71 300.82 77 330.16 143.95 348.94 212.89 367.72 273.59 375.05 321.14 372.26 352.06 370.21 364.09 359.91 358.94 344.74 339.59 334.85 306.34 326.7 266.41 326.75 224.77 341.62 180.22 373.54 140.9 426.59 109.46 496.86 82.15 584.09 64.72 679.68 56.79 802.84 56.39 850.1 92.15 742.43 119.59 641.85 139.25 542.48 158.93 469.55 177.7Q469.52 177.71 469.52 177.71" opacity="0.53"></path><path d="M435.55 187.73C428.49 220.59 553.13 262.12 707.19 315.28 814.16 375.57 809.7 457.19 723.53 557.7 588.82 659.56 460.08 760.25 366.51 832 285.5 856.75 232.51 820.09 199.65 722.88 166.79 600.84 157.16 487.52 181.23 411.11 217.85 380.71 295.31 389.72 386.95 418.59 430.05 466.53 399.65 505.07 268.6 522.06 90.45 537.87 -47.5 529.9 -40.44 497.03 108.79 464.17 294.43 409.54 401.49 336.78 390.28 262.84 294.55 173.02 189.76 82 98.08 10.06 66.4 -33.79 80.55 -27.48 117.3 24.83 162.67 124.84 195.53 246.88 228.4 344.09 245.64 394.07 265.83 393.41 308.63 345.74 391.59 279.9 526.34 221.12 739.49 148.51 670.95 144.33 435.55 187.73Q435.55 187.73 435.55 187.73" opacity="0.47"></path><path d="M401.53 264.09C385.34 292.25 471.47 336.97 599.2 396.32 722.44 458.12 779.52 536.3 767.36 622.93 703.59 702.17 613.99 772.01 532.28 812.86 446.7 817.02 386.01 774.97 357.84 688.93 329.68 584.5 336.7 482.9 373.47 404.65 406.36 356.31 452 337.99 478.86 339.83 454.11 360.86 367.15 382.4 223.26 392.62 74.89 405.41 -22.65 399.84 -6.46 371.68 115.97 343.51 278.66 295.41 401.57 233.81 448.94 174.78 419.63 109.28 353.88 51.34 265.42 12.58 201.18 1.02 173.75 28.7 157.09 86.3 166.98 176.47 195.14 280.89 223.3 366.95 267.08 420.43 332.54 436.93 408.78 416.72 516.97 376.76 642.35 334.43 745.03 284.71 804.23 250.49 777.53 237.5 675.28 226.97 524.01 235.91 401.56 264.08Q401.53 264.09 401.53 264.09" opacity="0.24"></path><path d="M367.53 382.94C345.49 406.41 397.12 446.75 489.81 499.51 601.2 551.6 685 613.31 724.84 675.71 731.61 727.94 704.35 767.72 664.14 782.82 613.82 772.19 571.08 728.77 547.61 654.93 524.14 568.24 522.16 480.95 531.8 407.06 531.34 350.19 521.96 313.44 484.43 293.47 413.82 288.33 305.13 288.72 176.53 286.34 66.63 287.64 5.49 278.67 27.53 255.2 124.4 231.72 258.46 195.97 378.89 154 475.99 97.2 413.89 48.18 361.22 93.77 330.28 150.45 324.64 228.21 348.11 314.89 371.57 388.75 421.92 441.69 493.53 469.54 563.75 471.64 646.64 456.76 720.36 435.29 761.74 403.66 757.5 378.57 692.2 367.17 588.98 355.08 464.44 359.46 367.56 382.93Q367.53 382.94 367.53 382.94" opacity="0.11"></path><path d="M333.67 507.07C309.06 525.84 332.36 556.2 388.24 593.77 468.86 629.49 545.86 668.48 602.86 703.8 658.83 737.83 653.65 702.02 626.87 620.88 608.09 551.93 588.31 480.9 562.92 416.65 530.47 360.34 481.04 315.67 410.52 282.99 328.91 259.23 232 242.2 137.61 227.93 67.97 216.61 37.06 202.71 61.67 183.93 134.68 165.15 237.18 143.28 340.21 122.05 431.42 103.78 494.5 91.51 528.59 90.65 539.32 98.73 535.62 123.48 530.92 166.03 520.21 216.51 520.91 279.93 539.69 348.88 558.46 409.56 593.54 458.1 636.8 491.15 690.54 510.93 689.87 495.92 590.84 487.9 501.57 482.87 406.68 488.29 333.67 507.07Q333.67 507.07 333.67 507.07" opacity="0.35"></path><path d="M299.53 597.81C283.34 625.97 357.24 668.96 439.98 699.09 530.15 707.91 564.48 672.97 536.31 586.93 508.14 482.49 422.82 379.56 295.73 306.36 176.07 248.72 79.34 208.46 95.53 180.29 217.98 152.12 378.84 141.39 490.16 162.11 563.94 198.39 598.81 278.49 626.98 382.93 655.14 468.97 671.28 526.74 634.41 554.84 560.01 561.63 421.98 569.64 299.53 597.81Q299.53 597.81 299.53 597.81" opacity="0.75"></path><path d="M265.56 626.65C270.88 664.21 381.2 660.13 343.65 552.92 306.09 413.47 134.88 282.84 129.56 245.28 306.37 207.73 506.61 277.47 544.17 416.92 581.72 524.13 442.37 589.1 265.56 626.65Q265.56 626.65 265.56 626.65" opacity="0.30"></path></g></svg>